<svg xmlns="http://www.w3.org/2000/svg" viewBox="0 0 696.23 134.72"><defs><style>.cls-1{fill:#fff;}</style></defs><g id="Capa_2" data-name="Capa 2"><g id="Capa_1-2" data-name="Capa 1"><path class="cls-1" d="M36.45,97.13q6.94-7.25,13.91-14.47a4.8,4.8,0,0,0,1.24-2.3,7.18,7.18,0,0,0-2.17-7Q40.11,64,30.83,54.7c-2.22-2.22-2.23-4.61,0-6.86,1.69-1.7,3.42-3.35,5.07-5.09a8.89,8.89,0,0,0-.15-12.94C31.83,25.88,27.93,21.94,24,18a4.46,4.46,0,0,1-1.43-3.43c0-1.82,0-3.64,0-5.46h0c0-2,0-4,0-6a3.2,3.2,0,0,0-3-3.15,3,3,0,0,0-3.4,2.63A7.9,7.9,0,0,0,16,4.09c0,3.5.06,7,.12,10.5a4.74,4.74,0,0,1-1.48,3.68c-4,4-7.87,8.2-12.06,12s-2.76,9.51.05,12.29c10.42,10.28,20.76,20.64,31.13,31A7.49,7.49,0,0,1,33.84,84q-6.48,6.69-13,13.37c-2.73,2.82-2.74,6,0,8.78,1.68,1.71,3.41,3.36,5.11,5l21.64,21.44a8.19,8.19,0,0,0,2,1.53c.5.26,1,.46,1.5.1s.38-.92.23-1.47a7.55,7.55,0,0,0-1.21-2.34q-8.1-11.84-16.2-23.67a5.27,5.27,0,0,1-.22-6.09A18.26,18.26,0,0,1,36.45,97.13Zm-17.05-53a7.83,7.83,0,0,1-7.66-7.77,7.68,7.68,0,0,1,15.36,0A7.86,7.86,0,0,1,19.4,44.12Z"/><path class="cls-1" d="M693.71,42.53c3.21-3.2,3.37-8.41.42-11.37-4.29-4.3-8.55-8.63-12.86-12.91a3.85,3.85,0,0,1-1.22-2.7c0-1.86,0-3.73,0-5.59,0-2.26.11-4.52,0-6.77a3,3,0,0,0-3.4-2.95A3.22,3.22,0,0,0,673.6,3.6c0,1.9,0,3.81,0,5.72h0c0,1.68-.07,3.37,0,5a5.21,5.21,0,0,1-1.76,4.25c-4,3.95-8,7.9-11.91,12a8.77,8.77,0,0,0,.21,12.24c1.64,1.69,3.29,3.35,5,5,2.54,2.55,2.55,4.8,0,7.33q-9.35,9.38-18.69,18.75c-2.51,2.53-2.81,6.63-.65,8.89,3.46,3.62,7,7.21,10.4,10.84,2.22,2.34,4.68,4.49,6.29,7.36a5.23,5.23,0,0,1-.22,6q-8.21,11.92-16.35,23.9a6.71,6.71,0,0,0-1.11,2.24c-.12.51-.21,1,.19,1.36a1.31,1.31,0,0,0,1.5,0,10,10,0,0,0,2.3-1.79q13.26-13.16,26.52-26.34c2.69-2.68,2.73-5.82.1-8.56Q669,91.17,662.61,84.61a7.59,7.59,0,0,1,0-11.1ZM676.71,29a7.65,7.65,0,1,1-7.66,7.71A7.69,7.69,0,0,1,676.71,29Z"/><path class="cls-1" d="M195.35,44.52c0,.79-6,5.84-8,5.84-1.73,0-7.26-19.73-9.63-19.73l-17-.32V105c.79,0,13.11,2.68,13.11,4.42,0,.94-4.74,6.15-6.16,6.15-.47,0-5.37-.79-5.37-.79l-33.47.48s-1.89-2.84-1.89-4c0-1,10.89-5.68,12.31-5.68V30.31l-16.73.32c-2.37,0-7.89,19.73-9.63,19.73-2.05,0-8.05-5-8.05-5.84,0-5.53,1.42-23.68,1.42-23.68h87.77S195.35,39,195.35,44.52Z"/><path class="cls-1" d="M203.25,47.05c0-1.42,2.37-4.11,2.37-4.11l15.79.48h44.67s1.43,12.78,1.43,16.89c0,.94-6.95,5.52-8.69,5.52-4.1,0-7.42-13.73-9.63-13.73l-17.05-.48V74.83h7.74c0-1.26,4.42-9.31,6.63-9.31,1.1,0,7.89,5.52,7.89,6.31,0,.63-.79,4.74-.79,4.74l.48,9.94c0,.79-2.37,5.85-3,5.85-2.37,0-7.74-2.37-7.74-2.37L240.67,83h-8.53v25.1l17.37-.31s8.05-16,9.94-16,8.69,5.05,8.69,6c0,4-1.74,16.89-1.74,16.89H222.2l-16.58.48s-2.37-2.53-2.37-4.11c0-1.1,6.63-5,7.58-5V51.78C209.88,51.78,203.25,48.15,203.25,47.05Z"/><path class="cls-1" d="M345.49,54c-2.52,0-13.41-5.36-13.41-6.79s2.36-4.26,2.36-4.26l22.89.48s5.53-.79,6-.79c.63,0,5.84,5.21,5.84,6.47,0,2.37-14.52,4.42-14.52,4.42V107.2c0,.31-9.47,9.31-13.58,9.15-1.73,0-15.62-5.68-17.36-10.26L304.45,56.83c-.16-.31-1.11-.63-1.11-.63v48s14.69,2.52,14.69,5c0,1.26-5.06,6.31-6,6.31-.48,0-6-.79-6-.79l-22.58.48s-2.52-2.37-2.52-4.11c0-1.42,11.84-6.94,13.26-6.94V53.52c-1.42,0-13.26-4.58-13.26-6.47,0-1.58,2.36-4.11,2.36-4.11l19.42.48,14.53-.79c.63,0,5.52,3.94,6,4.89l20.53,50.83c.16.48,1.73.79,1.73.79Z"/><path class="cls-1" d="M455.37,33.47c0,3.63-10.26,22.58-11.52,22.58a20.29,20.29,0,0,1-10.42-3.16L433,35.05c0-2-6.95-3.95-9-3.95a33.8,33.8,0,0,0-19.58,6.32,80.65,80.65,0,0,0-3.16,22.41c0,41.84,5.85,46.58,28.9,46.58,2.52,0,20.2-13.27,20.2-13.27s5.37,2.69,5.37,7.11c0,2.53-17.05,16.1-23.52,16.1-49.1,0-52.42-11-52.42-68.83,0-13.73,33.31-28.26,41.05-28.26C429.33,19.26,455.37,32.36,455.37,33.47Z"/><path class="cls-1" d="M543.15,109.25c0,1.1-5.21,6.31-6,6.31s-6.15-.79-6.15-.79l-22.58.48s-2.21-2.53-2.21-4.11c0-.94,6.47-4.89,6.79-4.89l-4.26-15.16c-5.21,2.37-12.16,5.21-13.11,5.21-.79,0-6.94-1.58-11.05-2.68l-3,10.89c2.84.32,12.79,2.53,12.79,4.74,0,1.1-5.21,6.31-6,6.31-.95,0-6.16-.79-6.16-.79l-22.57.48s-2.37-2.53-2.37-4.11c0-1.1,12.16-6.79,15-6.79l15.47-54.62c.47-1.89,9-7.89,11.05-7.89,1.58,0,19.58,5,21,9.94l15,53.52C535.26,105.3,543.15,107.51,543.15,109.25ZM506.53,82.88,499,55.73c-.16-.47-3.47-1.42-3.47-1.42l-7.27,26.21c3.48,1.42,8.37,3.31,9.48,3.31C498.47,83.83,502.58,83.36,506.53,82.88Z"/><path class="cls-1" d="M579.62,114.77l-22.89.48s-2.37-2.53-2.37-4.11c0-1.1,7.11-5,7.58-5V51.94c-.63,0-7.58-4.1-7.58-4.89,0-1.42,2.37-4.11,2.37-4.11l19.74.48s8.36-.79,9.31-.79c.79,0,6,5.21,6,6.31,0,1.9-8.52,3.63-8.52,3.63v53.05s8.52,1.89,8.52,3.63c0,1.1-5.21,6.31-6,6.31C584.83,115.56,579.62,114.77,579.62,114.77Z"/></g></g></svg>